{"title":"InAPPropriate Comedy 2013 WEBRip XviD-AQOS","uid":8703934,"size":730876125,"categoryP":"video","categoryS":"movies","magnet":"?xt=urn:btih:0b697f0b4d31d72b3b0bb187dee4a89b44a5c6e6&amp;dn=InAPPropriate+Comedy+2013+WEBRip+XviD-AQOS&amp;tr=udp%3A%2F%2Ftracker.openbittorrent.com%3A80&amp;tr=udp%3A%2F%2Fopen.demonii.com%3A1337&amp;tr=udp%3A%2F%2Ftracker.coppersurfer.tk%3A6969&amp;tr=udp%3A%2F%2Fexodus.desync.com%3A6969","seeders":5,"leechers":2,"uploader":"xxxlavalxxx","files":-1,"time":1374108317,"description":"\n\n &lt;a href=&quot;\nhttp://www.imdb.com/title/tt1754811/&quot; rel=&quot;nofollow&quot; target=&quot;_NEW&quot;&gt;\nhttp://www.imdb.com/title/tt1754811/&lt;/a&gt;\n\n\n\nIn this comedy film, a computer tablet full of the world's most hilariously offensive apps breaks through the borders of political correctness, stirring up cultural anarchy. \n\n\n\nDirector:\n Vince Offer \n\nWriters:\n Ken Pringle, Ari Shaffir\n\nStars:\n Rob Schneider, Michelle Rodriguez, Adrien Brody\n\nGenres:\n  Comedy \n\nCountry:\n USA \n\nLanguage:\n English\n\n\nFormat                                   : AVI\nFormat/Info                              : Audio Video Interleave\nFile size                                : 697 MiB\nDuration                                 : 1h 23mn\nOverall bit rate                         : 1 166 Kbps\n\nVideo\nID                                       : 0\nFormat                                   : MPEG-4 Visual\nFormat profile                           : Advanced Simple@L5\nFormat settings, BVOP                    : 2\nFormat settings, QPel                    : No\nFormat settings, GMC                     : No warppoints\nFormat settings, Matrix                  : Default (H.263)\nCodec ID                                 : XVID\nCodec ID/Hint                            : XviD\nDuration                                 : 1h 23mn\nBit rate                                 : 1 032 Kbps\nWidth                                    : 720 pixels\nHeight                                   : 400 pixels\nDisplay aspect ratio                     : 16:9\nFrame rate                               : 25.000 fps\nColor space                              : YUV\nChroma subsampling                       : 4:2:0\nBit depth                                : 8 bits\nScan type                                : Progressive\nCompression mode                         : Lossy\nBits/(Pixel*Frame)                       : 0.143\nStream size                              : 617 MiB (88%)\nWriting library                          : XviD 1.2.1 (UTC 2008-12-04)\n\nAudio\nID                                       : 1\nFormat                                   : MPEG Audio\nFormat version                           : Version 1\nFormat profile                           : Layer 3\nMode                                     : Joint stereo\nMode extension                           : MS Stereo\nCodec ID                                 : 55\nCodec ID/Hint                            : MP3\nDuration                                 : 1h 23mn\nBit rate mode                            : Constant\nBit rate                                 : 128 Kbps\nChannel(s)                               : 2 channels\nSampling rate                            : 44.1 KHz\nCompression mode                         : Lossy\nStream size                              : 76.5 MiB (11%)\nAlignment                                : Aligned on interleaves\nInterleave, duration                     : 160 ms (4.00 video frames)\nInterleave, preload duration             : 208 ms\nTitle                                    : InAPPropriate Comedy.2013.avi_track_1_\nWriting library                          : LAME3.99r\nEncoding settings                        : -m j -V 4 -q 2 -lowpass 17 -b 128\n\n\n\n\nscreens\n\n\n    &lt;a href=&quot;\thttp://addpix.net/viewer.php?file=80934978649057436225.jpg&quot; rel=&quot;nofollow&quot; target=&quot;_NEW&quot;&gt;\thttp://addpix.net/viewer.php?file=80934978649057436225.jpg&lt;/a&gt;\n    &lt;a href=&quot;\thttp://addpix.net/viewer.php?file=61950159716212460951.jpg&quot; rel=&quot;nofollow&quot; target=&quot;_NEW&quot;&gt;\thttp://addpix.net/viewer.php?file=61950159716212460951.jpg&lt;/a&gt;\n    &lt;a href=&quot;\thttp://addpix.net/viewer.php?file=29137224441645535937.jpg&quot; rel=&quot;nofollow&quot; target=&quot;_NEW&quot;&gt;\thttp://addpix.net/viewer.php?file=29137224441645535937.jpg&lt;/a&gt;\n    &lt;a href=&quot;\thttp://addpix.net/viewer.php?file=44285127971928212617.jpg&quot; rel=&quot;nofollow&quot; target=&quot;_NEW&quot;&gt;\thttp://addpix.net/viewer.php?file=44285127971928212617.jpg&lt;/a&gt;\n    &lt;a href=&quot;\thttp://addpix.net/viewer.php?file=84158389436132176409.jpg&quot; rel=&quot;nofollow&quot; target=&quot;_NEW&quot;&gt;\thttp://addpix.net/viewer.php?file=84158389436132176409.jpg&lt;/a&gt;","torrent":{"xt":"urn:btih:0b697f0b4d31d72b3b0bb187dee4a89b44a5c6e6","amp;dn":"InAPPropriate+Comedy+2013+WEBRip+XviD-AQOS","amp;tr":["udp%3A%2F%2Ftracker.openbittorrent.com%3A80","udp%3A%2F%2Fopen.demonii.com%3A1337","udp%3A%2F%2Ftracker.coppersurfer.tk%3A6969","udp%3A%2F%2Fexodus.desync.com%3A6969"],"infoHash":"0b697f0b4d31d72b3b0bb187dee4a89b44a5c6e6","infoHashBuffer":{"type":"Buffer","data":[11,105,127,11,77,49,215,43,59,11,177,135,222,228,168,155,68,165,198,230]},"announce":[],"urlList":[]}}